<svg width="462" height="443" viewBox="0 0 462 443" fill="none" xmlns="http://www.w3.org/2000/svg">
<path fill-rule="evenodd" clip-rule="evenodd" d="M55.381 92.2914C55.381 41.3202 96.7013 0 147.672 0H313.797C364.768 0 406.089 41.3203 406.089 92.2915V129.208V203.041V350.708C406.089 371.091 389.568 387.617 369.186 387.624V424.542C369.186 434.736 360.922 443 350.728 443H313.811C303.617 443 295.353 434.736 295.353 424.542V387.624H166.133V424.542C166.133 434.736 157.869 443 147.674 443H110.758C100.564 443 92.2996 434.736 92.2996 424.542V387.624H92.2975C71.9091 387.624 55.381 371.096 55.381 350.708V203.041V129.208V92.2914ZM110.749 92.2911C100.555 92.2911 92.2906 100.555 92.2906 110.749V239.957C92.2906 250.152 100.555 258.416 110.749 258.416H350.707C360.901 258.416 369.165 250.152 369.165 239.957V110.749C369.165 100.555 360.901 92.2911 350.707 92.2911H110.749ZM166.135 50.7612C166.135 43.1155 172.333 36.9175 179.979 36.9175H281.499C289.145 36.9175 295.343 43.1155 295.343 50.7612C295.343 58.4069 289.145 64.6049 281.499 64.6049H179.979C172.333 64.6049 166.135 58.4069 166.135 50.7612ZM119.978 350.707C135.269 350.707 147.665 338.311 147.665 323.02C147.665 307.729 135.269 295.332 119.978 295.332C104.687 295.332 92.2906 307.729 92.2906 323.02C92.2906 338.311 104.687 350.707 119.978 350.707ZM369.164 323.02C369.164 338.311 356.768 350.707 341.477 350.707C326.185 350.707 313.789 338.311 313.789 323.02C313.789 307.729 326.185 295.332 341.477 295.332C356.768 295.332 369.164 307.729 369.164 323.02ZM442.988 110.749C453.182 110.749 461.446 119.013 461.446 129.207V166.124C461.446 176.318 453.182 184.582 442.988 184.582H424.54V110.749H442.988ZM18.4583 184.583C8.26406 184.583 0 176.319 0 166.125V129.208C0 119.014 8.26407 110.75 18.4583 110.75H36.9064V184.583H18.4583ZM55.3647 166.743C55.3715 166.538 55.3749 166.332 55.3749 166.125V129.208C55.3749 129.001 55.3715 128.795 55.3647 128.59V166.743Z" fill="#B2B2B2"/>
</svg>
