<svg width="50" height="58" viewBox="0 0 50 58" fill="none" xmlns="http://www.w3.org/2000/svg">
<g filter="url(#filter0_d_5226_61786)">
<rect x="20.874" y="33.5352" width="8.24994" height="19.7655" rx="4.12497" fill="#6E6E6E"/>
<circle cx="25.0002" cy="23.0002" r="21.6525" fill="white" stroke="#6E6E6E" stroke-width="2.69533"/>
<path fill-rule="evenodd" clip-rule="evenodd" d="M13.8006 15.1544C13.8006 11.8706 16.4627 9.2085 19.7466 9.2085H30.4492C33.733 9.2085 36.3951 11.8706 36.3951 15.1544V17.5325V22.2895V31.8026C36.3951 33.1162 35.3302 34.181 34.0167 34.181H16.179C14.8655 34.181 13.8006 33.1162 13.8006 31.8026V22.2895V17.5325V15.1544ZM17.3672 15.1541C16.7104 15.1541 16.178 15.6865 16.178 16.3433V24.6675C16.178 25.3243 16.7104 25.8567 17.3672 25.8567H32.8265C33.4833 25.8567 34.0157 25.3243 34.0157 24.6675V16.3433C34.0157 15.6865 33.4833 15.1541 32.8265 15.1541H17.3672ZM20.9363 12.4785C20.9363 11.9859 21.3356 11.5866 21.8282 11.5866H28.3687C28.8612 11.5866 29.2606 11.9859 29.2606 12.4785C29.2606 12.9711 28.8612 13.3704 28.3687 13.3704H21.8282C21.3356 13.3704 20.9363 12.9711 20.9363 12.4785ZM17.9618 31.8027C18.9469 31.8027 19.7455 31.0041 19.7455 30.0189C19.7455 29.0338 18.9469 28.2351 17.9618 28.2351C16.9766 28.2351 16.178 29.0338 16.178 30.0189C16.178 31.0041 16.9766 31.8027 17.9618 31.8027ZM34.0154 30.0189C34.0154 31.0041 33.2168 31.8027 32.2317 31.8027C31.2465 31.8027 30.4479 31.0041 30.4479 30.0189C30.4479 29.0338 31.2465 28.2351 32.2317 28.2351C33.2168 28.2351 34.0154 29.0338 34.0154 30.0189ZM37.5843 21.1003V16.3436H37.5846H38.7738C39.4305 16.3436 39.9629 16.876 39.9629 17.5328V19.9111C39.9629 20.5679 39.4305 21.1003 38.7738 21.1003H37.5846H37.5843ZM12.612 16.3436V21.1003H12.6118H11.4226C10.7658 21.1003 10.2334 20.5679 10.2334 19.9112V17.5328C10.2334 16.876 10.7658 16.3436 11.4226 16.3436H12.6118H12.612ZM19.7463 37.7486C20.4031 37.7486 20.9355 37.2162 20.9355 36.5594V34.1811H16.1788V36.5594C16.1788 37.2162 16.7112 37.7486 17.368 37.7486H19.7463ZM34.0186 36.5594C34.0186 37.2161 33.4861 37.7486 32.8294 37.7486H30.451C29.7943 37.7486 29.2618 37.2161 29.2618 36.5594V34.1811H34.0186V36.5594Z" fill="#6E6E6E"/>
</g>
<defs>
<filter id="filter0_d_5226_61786" x="0" y="0" width="50" height="57.3008" filterUnits="userSpaceOnUse" color-interpolation-filters="sRGB">
<feFlood flood-opacity="0" result="BackgroundImageFix"/>
<feColorMatrix in="SourceAlpha" type="matrix" values="0 0 0 0 0 0 0 0 0 0 0 0 0 0 0 0 0 0 127 0" result="hardAlpha"/>
<feOffset dy="2"/>
<feGaussianBlur stdDeviation="1"/>
<feComposite in2="hardAlpha" operator="out"/>
<feColorMatrix type="matrix" values="0 0 0 0 0 0 0 0 0 0 0 0 0 0 0 0 0 0 0.25 0"/>
<feBlend mode="normal" in2="BackgroundImageFix" result="effect1_dropShadow_5226_61786"/>
<feBlend mode="normal" in="SourceGraphic" in2="effect1_dropShadow_5226_61786" result="shape"/>
</filter>
</defs>
</svg>
