<svg width="433" height="441" viewBox="0 0 433 441" fill="none" xmlns="http://www.w3.org/2000/svg">
<path fill-rule="evenodd" clip-rule="evenodd" d="M142.815 14.2456C145.345 5.79149 153.124 0 161.948 0H268.139C276.963 0 284.742 5.7907 287.272 14.244L302.219 64.1731C303.923 69.8638 302.977 75.5694 300.227 80.154H313.325C341.555 80.154 365.955 99.8593 371.898 127.456L389.771 210.458V209.971H389.786H411.06C422.809 209.971 432.334 219.496 432.334 231.245V231.679C432.334 243.429 422.809 252.953 411.06 252.953H407.845C415.219 260.605 419.755 271.011 419.755 282.477V337.182C419.755 360.681 400.705 379.73 377.207 379.73H374.598V419.672C374.598 431.421 365.073 440.946 353.324 440.946H310.775C299.026 440.946 289.501 431.421 289.501 419.672V379.73H140.563V419.672C140.563 431.421 131.038 440.946 119.289 440.946H76.7407C64.9913 440.946 55.4665 431.421 55.4665 419.672L55.4665 379.73H52.8844C29.3856 379.73 10.3362 360.681 10.3362 337.182V282.477C10.3362 271.011 14.872 260.603 22.2474 252.952H21.614C9.8646 252.952 0.339844 243.427 0.339844 231.678V231.244C0.339844 219.495 9.86462 209.97 21.614 209.97H40.4454L58.2071 127.46C64.1483 99.8612 88.5492 80.154 116.78 80.154H129.866C127.116 75.5699 126.17 69.8649 127.873 64.1747L142.815 14.2456ZM161.42 35.6506V29.7109H186.996V35.6506H177.821V59.971H170.61V35.6506H161.42ZM196.039 59.971H188.179L198.389 29.7109H208.126L218.335 59.971H210.475L208.48 53.6175H198.03L196.039 59.971ZM203.368 37.335L206.736 48.062H199.771L203.131 37.335H203.368ZM231.7 29.7109L237.226 39.2706H237.463L243.048 29.7109H251.233L242.102 44.841L251.529 59.971H243.136L237.463 50.3079H237.226L231.553 59.971H223.219L232.602 44.841L223.456 29.7109H231.7ZM265.034 59.971H257.72V29.7109H265.034V59.971ZM96.6407 125.592C98.7318 116.53 106.801 110.111 116.101 110.111H313.999C323.299 110.111 331.368 116.53 333.46 125.592L354.199 215.464C357.087 227.979 347.583 239.927 334.739 239.927H95.3611C82.5176 239.927 73.0129 227.979 75.9009 215.464L96.6407 125.592ZM87.4049 334.575C105.029 334.575 119.316 320.288 119.316 302.663C119.316 285.039 105.029 270.752 87.4049 270.752C69.7808 270.752 55.4937 285.039 55.4937 302.663C55.4937 320.288 69.7808 334.575 87.4049 334.575ZM374.621 302.663C374.621 320.288 360.334 334.575 342.71 334.575C325.086 334.575 310.799 320.288 310.799 302.663C310.799 285.039 325.086 270.752 342.71 270.752C360.334 270.752 374.621 285.039 374.621 302.663Z" fill="#B2B2B2"/>
</svg>
