<svg width="2312" height="3166" viewBox="0 0 2312 3166" fill="none" xmlns="http://www.w3.org/2000/svg">
<g filter="url(#filter0_d_5207_61788)">
<path d="M1156.4 65C606.086 65 161 510.086 161 1060.4C161 1806.95 1156.4 2909 1156.4 2909C1156.4 2909 2151.8 1806.95 2151.8 1060.4C2151.8 510.086 1706.71 65 1156.4 65ZM1156.4 1415.9C960.164 1415.9 800.9 1256.64 800.9 1060.4C800.9 864.164 960.164 704.9 1156.4 704.9C1352.64 704.9 1511.9 864.164 1511.9 1060.4C1511.9 1256.64 1352.64 1415.9 1156.4 1415.9Z" fill="#0FBA68"/>
<path d="M1156.4 2819.06C1129.63 2787.94 1091.92 2743.31 1046.87 2687.8C954.319 2573.76 831.009 2414.11 707.816 2231.52C584.51 2048.76 462.053 1844.1 370.603 1639.97C278.805 1435.06 220.25 1235.05 220.25 1060.4C220.25 542.809 638.809 124.25 1156.4 124.25C1673.99 124.25 2092.55 542.809 2092.55 1060.4C2092.55 1235.05 2034 1435.06 1942.2 1639.97C1850.75 1844.1 1728.29 2048.76 1604.98 2231.52C1481.79 2414.11 1358.48 2573.76 1265.93 2687.8C1220.88 2743.31 1183.17 2787.94 1156.4 2819.06ZM741.65 1060.4C741.65 1289.36 927.441 1475.15 1156.4 1475.15C1385.36 1475.15 1571.15 1289.36 1571.15 1060.4C1571.15 831.441 1385.36 645.65 1156.4 645.65C927.441 645.65 741.65 831.441 741.65 1060.4Z" stroke="white" stroke-width="118.5"/>
</g>
<circle cx="1156.38" cy="1060.4" r="379.2" fill="white"/>
<defs>
<filter id="filter0_d_5207_61788" x="0.853836" y="0.941528" width="2311.09" height="3164.29" filterUnits="userSpaceOnUse" color-interpolation-filters="sRGB">
<feFlood flood-opacity="0" result="BackgroundImageFix"/>
<feColorMatrix in="SourceAlpha" type="matrix" values="0 0 0 0 0 0 0 0 0 0 0 0 0 0 0 0 0 0 127 0" result="hardAlpha"/>
<feOffset dy="96.0877"/>
<feGaussianBlur stdDeviation="80.0731"/>
<feComposite in2="hardAlpha" operator="out"/>
<feColorMatrix type="matrix" values="0 0 0 0 0 0 0 0 0 0 0 0 0 0 0 0 0 0 0.25 0"/>
<feBlend mode="normal" in2="BackgroundImageFix" result="effect1_dropShadow_5207_61788"/>
<feBlend mode="normal" in="SourceGraphic" in2="effect1_dropShadow_5207_61788" result="shape"/>
</filter>
</defs>
</svg>
