<svg width="63" height="85" viewBox="0 0 63 85" fill="none" xmlns="http://www.w3.org/2000/svg">
<g filter="url(#filter0_d_5227_61859)">
<path d="M31.5 2C16.8493 2 5 13.8493 5 28.5C5 48.375 31.5 77.7143 31.5 77.7143C31.5 77.7143 58 48.375 58 28.5C58 13.8493 46.1507 2 31.5 2ZM31.5 37.9643C26.2757 37.9643 22.0357 33.7243 22.0357 28.5C22.0357 23.2757 26.2757 19.0357 31.5 19.0357C36.7243 19.0357 40.9643 23.2757 40.9643 28.5C40.9643 33.7243 36.7243 37.9643 31.5 37.9643Z" fill="white"/>
<path d="M31.5 75.3197C30.7872 74.4913 29.7835 73.3032 28.5841 71.8255C26.1201 68.7894 22.8373 64.539 19.5576 59.678C16.2749 54.8126 13.0148 49.364 10.5801 43.9296C8.13626 38.4745 6.57738 33.1496 6.57738 28.5C6.57738 14.7204 17.7204 3.57738 31.5 3.57738C45.2796 3.57738 56.4226 14.7204 56.4226 28.5C56.4226 33.1496 54.8637 38.4745 52.4199 43.9296C49.9852 49.364 46.7251 54.8126 43.4424 59.678C40.1627 64.539 36.8799 68.7894 34.4159 71.8255C33.2165 73.3032 32.2128 74.4913 31.5 75.3197ZM20.4583 28.5C20.4583 34.5954 25.4046 39.5417 31.5 39.5417C37.5955 39.5417 42.5417 34.5954 42.5417 28.5C42.5417 22.4045 37.5955 17.4583 31.5 17.4583C25.4046 17.4583 20.4583 22.4045 20.4583 28.5Z" stroke="#F6CA46" stroke-width="3.15476"/>
</g>
<circle cx="31.4947" cy="29.2818" r="15.0191" fill="white"/>
<g filter="url(#filter1_d_5227_61859)">
<path fill-rule="evenodd" clip-rule="evenodd" d="M18.5301 21.1084C18.5301 17.3276 21.5951 14.2627 25.3758 14.2627H37.6981C41.4789 14.2627 44.5438 17.3276 44.5438 21.1084V23.847V29.3232V40.2767C44.5438 41.7887 43.3183 43.0145 41.8064 43.015V45.7529C41.8064 46.509 41.1934 47.122 40.4373 47.122H37.699C36.9428 47.122 36.3298 46.509 36.3298 45.7529L36.3298 43.015H26.7478V45.7537C26.7478 46.5099 26.1348 47.1229 25.3786 47.1229H22.6403C21.8842 47.1229 21.2712 46.5099 21.2712 45.7537V43.015H21.2684C19.7561 43.015 18.5301 41.789 18.5301 40.2767V29.3232V23.847V21.1084ZM22.6373 21.1083C21.8812 21.1083 21.2682 21.7213 21.2682 22.4774V32.0614C21.2682 32.8176 21.8812 33.4306 22.6373 33.4306H40.4362C41.1923 33.4306 41.8053 32.8176 41.8053 32.0614V22.4774C41.8053 21.7213 41.1923 21.1083 40.4362 21.1083H22.6373ZM26.745 18.0275C26.745 17.4604 27.2047 17.0007 27.7719 17.0007H35.3021C35.8693 17.0007 36.329 17.4604 36.329 18.0275C36.329 18.5947 35.8693 19.0544 35.3021 19.0544H27.7719C27.2047 19.0544 26.745 18.5947 26.745 18.0275ZM23.3219 40.2763C24.4561 40.2763 25.3756 39.3568 25.3756 38.2226C25.3756 37.0884 24.4561 36.1689 23.3219 36.1689C22.1877 36.1689 21.2682 37.0884 21.2682 38.2226C21.2682 39.3568 22.1877 40.2763 23.3219 40.2763ZM41.8061 38.2226C41.8061 39.3568 40.8866 40.2763 39.7524 40.2763C38.6181 40.2763 37.6987 39.3568 37.6987 38.2226C37.6987 37.0884 38.6181 36.1689 39.7524 36.1689C40.8866 36.1689 41.8061 37.0884 41.8061 38.2226ZM45.9132 27.9543V22.4777H45.9134H47.2825C48.0387 22.4777 48.6516 23.0907 48.6516 23.8469V26.5851C48.6516 27.3413 48.0387 27.9543 47.2825 27.9543H45.9134H45.9132ZM17.1613 22.4782V27.9548H17.1611H15.792C15.0358 27.9548 14.4229 27.3418 14.4229 26.5857V23.8474C14.4229 23.0912 15.0358 22.4782 15.792 22.4782H17.1611H17.1613Z" fill="#F6CA46"/>
</g>
<defs>
<filter id="filter0_d_5227_61859" x="0.736516" y="0.294606" width="61.527" height="84.2413" filterUnits="userSpaceOnUse" color-interpolation-filters="sRGB">
<feFlood flood-opacity="0" result="BackgroundImageFix"/>
<feColorMatrix in="SourceAlpha" type="matrix" values="0 0 0 0 0 0 0 0 0 0 0 0 0 0 0 0 0 0 127 0" result="hardAlpha"/>
<feOffset dy="2.55809"/>
<feGaussianBlur stdDeviation="2.13174"/>
<feComposite in2="hardAlpha" operator="out"/>
<feColorMatrix type="matrix" values="0 0 0 0 0 0 0 0 0 0 0 0 0 0 0 0 0 0 0.25 0"/>
<feBlend mode="normal" in2="BackgroundImageFix" result="effect1_dropShadow_5227_61859"/>
<feBlend mode="normal" in="SourceGraphic" in2="effect1_dropShadow_5227_61859" result="shape"/>
</filter>
<filter id="filter1_d_5227_61859" x="13.7341" y="14.2627" width="35.606" height="34.2379" filterUnits="userSpaceOnUse" color-interpolation-filters="sRGB">
<feFlood flood-opacity="0" result="BackgroundImageFix"/>
<feColorMatrix in="SourceAlpha" type="matrix" values="0 0 0 0 0 0 0 0 0 0 0 0 0 0 0 0 0 0 127 0" result="hardAlpha"/>
<feOffset dy="0.688749"/>
<feGaussianBlur stdDeviation="0.344375"/>
<feComposite in2="hardAlpha" operator="out"/>
<feColorMatrix type="matrix" values="0 0 0 0 0 0 0 0 0 0 0 0 0 0 0 0 0 0 0.25 0"/>
<feBlend mode="normal" in2="BackgroundImageFix" result="effect1_dropShadow_5227_61859"/>
<feBlend mode="normal" in="SourceGraphic" in2="effect1_dropShadow_5227_61859" result="shape"/>
</filter>
</defs>
</svg>
